<svg xmlns="http://www.w3.org/2000/svg" xmlns:xlink="http://www.w3.org/1999/xlink" width="500" zoomAndPan="magnify" viewBox="0 0 375 374.999991" height="500" preserveAspectRatio="xMidYMid meet" version="1.0"><defs><clipPath id="id1"><path d="M 8 45.089844 L 366 45.089844 L 366 310 L 8 310 Z M 8 45.089844 " clip-rule="nonzero"/></clipPath><clipPath id="id2"><path d="M 7.710938 45.089844 L 366.210938 45.089844 L 366.210938 313 L 7.710938 313 Z M 7.710938 45.089844 " clip-rule="nonzero"/></clipPath></defs><g clip-path="url(#id1)"><path fill="#ffffff" d="M 8.074219 199.214844 C 8.074219 199.214844 30.378906 172.339844 55.570312 164.25 C 62.394531 169.355469 101.0625 246.53125 107.882812 245.671875 C 115.558594 244.824219 166.105469 174.492188 275.417969 45.476562 C 275.417969 45.476562 307.054688 59.820312 365.261719 62.8125 C 213.0625 182.039062 134.335938 298.25 127.4375 303.867188 C 107.824219 313.234375 97.773438 307.816406 90.949219 303.558594 C 74.75 289.082031 8.925781 202.621094 8.078125 199.214844 Z M 8.074219 199.214844 " fill-opacity="1" fill-rule="evenodd"/></g><g clip-path="url(#id2)"><path stroke-linecap="butt" transform="matrix(0.640005, 0, 0, 0.639133, -35.692764, -177.34184)" fill="none" stroke-linejoin="miter" d="M 68.385358 589.167501 C 68.385358 589.167501 103.23615 547.118382 142.597404 534.460864 C 153.26016 542.448974 213.678373 663.199619 224.335025 661.855025 C 236.328336 660.528766 315.30719 550.485979 486.10659 348.625763 C 486.10659 348.625763 535.538564 371.068258 626.486315 375.749889 C 388.676958 562.293958 265.667699 744.119725 254.888977 752.908479 C 224.243473 767.564553 208.539254 759.087499 197.876499 752.425648 C 172.565424 729.775352 69.715914 594.496982 68.391461 589.167501 Z M 68.385358 589.167501 " stroke="#000000" stroke-width="1" stroke-opacity="1" stroke-miterlimit="4"/></g></svg>