<svg xmlns="http://www.w3.org/2000/svg" xmlns:xlink="http://www.w3.org/1999/xlink" width="500" zoomAndPan="magnify" viewBox="0 0 375 374.999991" height="500" preserveAspectRatio="xMidYMid meet" version="1.0"><defs><clipPath id="id1"><path d="M 113 8.097656 L 367 8.097656 L 367 262 L 113 262 Z M 113 8.097656 " clip-rule="nonzero"/></clipPath><clipPath id="id2"><path d="M 13 251 L 124 251 L 124 360.597656 L 13 360.597656 Z M 13 251 " clip-rule="nonzero"/></clipPath></defs><g clip-path="url(#id1)"><path fill="#ffffff" d="M 240.070312 8.121094 C 309.996094 8.121094 366.878906 64.949219 366.878906 134.808594 C 366.878906 204.667969 309.996094 261.496094 240.070312 261.496094 C 170.144531 261.496094 113.261719 204.667969 113.261719 134.808594 C 113.261719 64.949219 170.144531 8.121094 240.070312 8.121094 Z M 240.070312 241.585938 C 299.003906 241.585938 346.949219 193.683594 346.949219 134.808594 C 346.949219 75.933594 299.003906 28.03125 240.070312 28.03125 C 181.136719 28.03125 133.191406 75.933594 133.191406 134.808594 C 133.191406 193.683594 181.136719 241.585938 240.070312 241.585938 Z M 240.070312 241.585938 " fill-opacity="1" fill-rule="nonzero"/></g><path fill="#ffffff" d="M 113.027344 243.976562 L 135.410156 221.613281 C 140.972656 228.292969 147.15625 234.433594 153.882812 239.945312 L 131.148438 262.65625 C 129.707031 258.527344 127.339844 254.652344 124.042969 251.359375 L 123.40625 250.726562 C 120.410156 247.730469 116.878906 245.457031 113.027344 243.976562 Z M 113.027344 243.976562 " fill-opacity="1" fill-rule="nonzero"/><g clip-path="url(#id2)"><path fill="#ffffff" d="M 87.5 257.28125 C 91.398438 253.386719 96.609375 251.242188 102.171875 251.242188 C 107.734375 251.242188 112.945312 253.386719 116.84375 257.28125 L 117.480469 257.917969 C 121.378906 261.8125 123.527344 267.019531 123.527344 272.574219 C 123.527344 278.132812 121.378906 283.335938 117.480469 287.234375 L 50.035156 354.613281 C 46.136719 358.507812 40.925781 360.652344 35.363281 360.652344 C 29.800781 360.652344 24.589844 358.507812 20.691406 354.613281 L 20.054688 353.980469 C 11.964844 345.894531 11.964844 332.742188 20.054688 324.660156 Z M 87.5 257.28125 " fill-opacity="1" fill-rule="nonzero"/></g></svg>