<svg xmlns="http://www.w3.org/2000/svg" xmlns:xlink="http://www.w3.org/1999/xlink" width="500" zoomAndPan="magnify" viewBox="0 0 375 374.999991" height="500" preserveAspectRatio="xMidYMid meet" version="1.0"><defs><clipPath id="id1"><path d="M 126 36.386719 L 249 36.386719 L 249 184 L 126 184 Z M 126 36.386719 " clip-rule="nonzero"/></clipPath><clipPath id="id2"><path d="M 73.078125 294 L 74 294 L 74 296 L 73.078125 296 Z M 73.078125 294 " clip-rule="nonzero"/></clipPath><clipPath id="id3"><path d="M 301 295 L 301.828125 295 L 301.828125 298 L 301 298 Z M 301 295 " clip-rule="nonzero"/></clipPath><clipPath id="id4"><path d="M 73.078125 189 L 301.828125 189 L 301.828125 337.136719 L 73.078125 337.136719 Z M 73.078125 189 " clip-rule="nonzero"/></clipPath></defs><path fill="#ffffff" d="M 187.355469 367.648438 C 139.21875 367.648438 93.894531 348.914062 59.882812 314.828125 C 25.800781 280.816406 7.0625 235.492188 7.0625 187.355469 C 7.0625 139.21875 25.800781 93.894531 59.882812 59.882812 C 93.894531 25.800781 139.21875 7.0625 187.355469 7.0625 C 235.492188 7.0625 280.816406 25.800781 314.828125 59.882812 C 348.914062 93.96875 367.648438 139.21875 367.648438 187.355469 C 367.648438 235.492188 348.914062 280.816406 314.828125 314.828125 C 280.816406 348.914062 235.492188 367.648438 187.355469 367.648438 Z M 187.355469 17.871094 C 142.101562 17.871094 99.515625 35.527344 67.523438 67.523438 C 35.527344 99.515625 17.871094 142.101562 17.871094 187.355469 C 17.871094 232.609375 35.527344 275.195312 67.523438 307.191406 C 99.515625 339.183594 142.101562 356.839844 187.355469 356.839844 C 232.609375 356.839844 275.195312 339.183594 307.191406 307.191406 C 339.183594 275.195312 356.839844 232.609375 356.839844 187.355469 C 356.839844 142.101562 339.183594 99.515625 307.191406 67.523438 C 275.195312 35.527344 232.609375 17.871094 187.355469 17.871094 Z M 187.355469 17.871094 " fill-opacity="1" fill-rule="nonzero"/><g clip-path="url(#id1)"><path fill="#ffffff" d="M 187.453125 183.472656 C 220.890625 183.472656 248.003906 150.570312 248.003906 109.984375 C 248.003906 69.394531 239.101562 36.492188 187.453125 36.492188 C 135.804688 36.492188 126.902344 69.394531 126.902344 109.984375 C 126.902344 150.570312 154.011719 183.472656 187.453125 183.472656 Z M 187.453125 183.472656 " fill-opacity="1" fill-rule="nonzero"/></g><g clip-path="url(#id2)"><path fill="#ffffff" d="M 73.085938 295.683594 C 73.074219 293.210938 73.0625 294.988281 73.085938 295.683594 Z M 73.085938 295.683594 " fill-opacity="1" fill-rule="nonzero"/></g><g clip-path="url(#id3)"><path fill="#ffffff" d="M 301.808594 297.617188 C 301.84375 296.9375 301.820312 292.914062 301.808594 297.617188 Z M 301.808594 297.617188 " fill-opacity="1" fill-rule="nonzero"/></g><g clip-path="url(#id4)"><path fill="#ffffff" d="M 301.691406 292.722656 C 300.566406 222.015625 291.328125 201.875 220.613281 189.113281 C 220.613281 189.113281 210.65625 201.789062 187.457031 201.789062 C 164.253906 201.789062 154.296875 189.113281 154.296875 189.113281 C 84.355469 201.730469 74.550781 221.578125 73.261719 290.421875 C 73.15625 296.042969 73.105469 296.335938 73.089844 295.683594 C 73.09375 296.90625 73.097656 299.167969 73.097656 303.113281 C 73.097656 303.113281 89.933594 337.027344 187.457031 337.027344 C 284.980469 337.027344 301.8125 303.113281 301.8125 303.113281 C 301.8125 300.578125 301.816406 298.816406 301.816406 297.617188 C 301.800781 298.023438 301.761719 297.238281 301.691406 292.71875 Z M 301.691406 292.722656 " fill-opacity="1" fill-rule="nonzero"/></g></svg>